<svg width="679" height="732" viewBox="0 0 679 732" fill="none" xmlns="http://www.w3.org/2000/svg">
<path d="M354.516 338.613L353.688 283.395C353.673 282.345 353.451 281.308 353.035 280.344C352.619 279.38 352.017 278.507 351.263 277.776C350.51 277.044 349.619 276.469 348.643 276.082C347.667 275.695 346.624 275.504 345.573 275.52L341.95 275.574C338.977 275.619 336.098 276.621 333.739 278.43C331.38 280.24 329.667 282.761 328.853 285.621L317.364 323.339" stroke="#006CA9" stroke-width="5" stroke-linecap="round" stroke-linejoin="round"/>
<path d="M328.645 339.378C331.357 333.816 329.048 327.109 323.486 324.396C317.925 321.684 311.217 323.993 308.504 329.555C305.792 335.116 308.101 341.824 313.663 344.537C319.225 347.249 325.932 344.94 328.645 339.378Z" stroke="#006CA9" stroke-width="5" stroke-linecap="round" stroke-linejoin="round"/>
<path d="M400.169 402.74C400.469 415.758 395.738 428.39 386.959 438.007C378.181 447.625 366.031 453.486 353.04 454.372C342.842 454.525 333.001 450.62 325.681 443.517C318.362 436.414 314.164 426.694 314.011 416.496L312.928 344.122" stroke="#006CA9" stroke-width="5" stroke-linecap="round" stroke-linejoin="round"/>
<path d="M400.17 402.738C400.174 401.959 400.022 401.188 399.724 400.468C399.426 399.749 398.987 399.097 398.434 398.549C397.88 398.001 397.223 397.569 396.501 397.279C395.778 396.988 395.005 396.845 394.227 396.857C393.448 396.869 392.68 397.036 391.967 397.348C391.253 397.661 390.61 398.112 390.073 398.677C389.537 399.241 389.118 399.907 388.842 400.635C388.566 401.363 388.438 402.139 388.466 402.917C388.574 410.174 386.857 421.612 373.014 421.823C367.696 421.786 362.557 419.894 358.484 416.475" stroke="#006CA9" stroke-width="5" stroke-linecap="round" stroke-linejoin="round"/>
<path d="M354.466 368.921L354.756 388.561M313.934 411.333L319.787 415.528M313.73 397.808L319.585 401.999M313.527 384.279L319.383 388.47M313.325 370.751L319.178 374.945M313.121 357.226L318.976 361.417M337.174 328.468L344.483 319.84L336.919 311.436L344.226 302.813L336.663 294.405L343.972 285.768L336.407 277.354M345.565 405.19L341.979 405.244C340.127 405.273 338.362 406.036 337.072 407.365C335.782 408.694 335.073 410.482 335.1 412.334C335.113 413.251 335.307 414.158 335.671 415C336.035 415.843 336.561 416.606 337.219 417.245C337.878 417.884 338.656 418.388 339.509 418.726C340.362 419.065 341.273 419.232 342.191 419.218L352.886 419.057C353.886 419.042 354.874 418.83 355.792 418.434C356.711 418.037 357.542 417.463 358.239 416.745C358.935 416.028 359.484 415.179 359.853 414.25C360.222 413.32 360.404 412.326 360.389 411.326L360.292 404.974L360.032 387.477C356.127 387.535 352.405 389.143 349.684 391.945C346.964 394.748 345.468 398.516 345.525 402.422L345.565 405.19ZM344.822 355.456L341.233 355.513C339.382 355.542 337.618 356.305 336.329 357.634C335.039 358.962 334.33 360.748 334.356 362.599C334.383 364.452 335.146 366.217 336.475 367.508C337.804 368.799 339.591 369.509 341.444 369.482L352.142 369.322C353.142 369.307 354.13 369.096 355.048 368.699C355.967 368.302 356.798 367.729 357.495 367.011C358.191 366.293 358.74 365.445 359.109 364.515C359.478 363.585 359.66 362.592 359.645 361.591L359.545 355.238L359.284 337.74C355.379 337.8 351.658 339.408 348.938 342.211C346.218 345.014 344.723 348.782 344.781 352.687L344.822 355.456Z" stroke="#006CA9" stroke-width="5" stroke-linecap="round" stroke-linejoin="round"/>
<path d="M321.382 335.837C322.139 334.286 321.495 332.415 319.944 331.659C318.392 330.902 316.522 331.546 315.765 333.098C315.008 334.649 315.653 336.52 317.204 337.276C318.755 338.033 320.626 337.389 321.382 335.837Z" fill="#006CA9"/>
<path d="M483.112 509.732C475.439 521.041 468.061 524.278 463 522.25C464.365 526.839 474.17 533.202 480.415 536.865C483.105 538.442 483.892 542.035 482.019 544.523C478.592 549.08 473.848 555.519 473.056 557.299C455.342 589.318 494.38 601.48 513.281 599.858C568.951 595.081 566.968 551.798 558.533 534.767C538.29 569.801 507.043 549.575 508.253 542.278C509.462 534.98 517.786 536.432 520.823 524.753C525.883 501.641 494.109 490.703 483.112 509.732Z" stroke="#006CA9" stroke-width="5" stroke-linecap="round" stroke-linejoin="round"/>
<path d="M500.711 567.312C506.996 576.075 525.851 584.837 540.935 572.319" stroke="#006CA9" stroke-width="5" stroke-linecap="round" stroke-linejoin="round"/>
<path d="M495.682 524.756C498.459 524.756 500.71 522.514 500.71 519.749C500.71 516.984 498.459 514.742 495.682 514.742C492.905 514.742 490.654 516.984 490.654 519.749C490.654 522.514 492.905 524.756 495.682 524.756Z" fill="#006CA9"/>
<path d="M129.112 509.732C121.439 521.041 114.061 524.278 109 522.25C110.365 526.839 120.17 533.202 126.415 536.865C129.105 538.442 129.892 542.035 128.019 544.523C124.592 549.08 119.848 555.519 119.056 557.299C101.342 589.318 140.38 601.48 159.281 599.858C214.951 595.081 212.968 551.798 204.533 534.767C184.29 569.801 153.043 549.575 154.253 542.278C155.462 534.98 163.786 536.432 166.823 524.753C171.883 501.641 140.109 490.703 129.112 509.732Z" stroke="#006CA9" stroke-width="5" stroke-linecap="round" stroke-linejoin="round"/>
<path d="M146.71 567.312C152.996 576.075 171.851 584.837 186.935 572.319" stroke="#006CA9" stroke-width="5" stroke-linecap="round" stroke-linejoin="round"/>
<path d="M141.682 524.756C144.459 524.756 146.71 522.514 146.71 519.749C146.71 516.984 144.459 514.742 141.682 514.742C138.905 514.742 136.654 516.984 136.654 519.749C136.654 522.514 138.905 524.756 141.682 524.756Z" fill="#006CA9"/>
<path d="M306.112 582.732C298.439 594.041 291.061 597.278 286 595.25C287.365 599.839 297.17 606.202 303.415 609.865C306.105 611.442 306.892 615.035 305.019 617.523C301.592 622.08 296.848 628.519 296.056 630.299C278.342 662.318 317.38 674.48 336.281 672.858C391.951 668.081 389.968 624.798 381.533 607.767C361.29 642.801 330.043 622.575 331.253 615.278C332.462 607.98 340.786 609.432 343.823 597.753C348.883 574.641 317.109 563.703 306.112 582.732Z" stroke="#006CA9" stroke-width="5" stroke-linecap="round" stroke-linejoin="round"/>
<path d="M323.71 640.312C329.996 649.075 348.851 657.837 363.935 645.319" stroke="#006CA9" stroke-width="5" stroke-linecap="round" stroke-linejoin="round"/>
<path d="M318.682 597.756C321.459 597.756 323.71 595.514 323.71 592.749C323.71 589.984 321.459 587.742 318.682 587.742C315.905 587.742 313.654 589.984 313.654 592.749C313.654 595.514 315.905 597.756 318.682 597.756Z" fill="#006CA9"/>
<path d="M483.112 155.732C475.439 167.041 468.061 170.278 463 168.25C464.365 172.839 474.17 179.202 480.415 182.865C483.105 184.442 483.892 188.035 482.019 190.523C478.592 195.08 473.848 201.519 473.056 203.299C455.342 235.318 494.38 247.48 513.281 245.858C568.951 241.081 566.968 197.798 558.533 180.767C538.29 215.801 507.043 195.575 508.253 188.278C509.462 180.98 517.786 182.432 520.823 170.753C525.883 147.641 494.109 136.703 483.112 155.732Z" stroke="#006CA9" stroke-width="5" stroke-linecap="round" stroke-linejoin="round"/>
<path d="M500.711 213.312C506.996 222.075 525.851 230.837 540.935 218.319" stroke="#006CA9" stroke-width="5" stroke-linecap="round" stroke-linejoin="round"/>
<path d="M495.682 170.756C498.459 170.756 500.71 168.514 500.71 165.749C500.71 162.984 498.459 160.742 495.682 160.742C492.905 160.742 490.654 162.984 490.654 165.749C490.654 168.514 492.905 170.756 495.682 170.756Z" fill="#006CA9"/>
<path d="M556.112 332.732C548.439 344.041 541.061 347.278 536 345.25C537.365 349.839 547.17 356.202 553.415 359.865C556.105 361.442 556.892 365.035 555.019 367.523C551.592 372.08 546.848 378.519 546.056 380.299C528.342 412.318 567.38 424.48 586.281 422.858C641.951 418.081 639.968 374.798 631.533 357.767C611.29 392.801 580.043 372.575 581.253 365.278C582.462 357.98 590.786 359.432 593.823 347.753C598.883 324.641 567.109 313.703 556.112 332.732Z" stroke="#006CA9" stroke-width="5" stroke-linecap="round" stroke-linejoin="round"/>
<path d="M573.711 390.312C579.996 399.075 598.851 407.837 613.935 395.319" stroke="#006CA9" stroke-width="5" stroke-linecap="round" stroke-linejoin="round"/>
<path d="M568.682 347.756C571.459 347.756 573.71 345.514 573.71 342.749C573.71 339.984 571.459 337.742 568.682 337.742C565.905 337.742 563.654 339.984 563.654 342.749C563.654 345.514 565.905 347.756 568.682 347.756Z" fill="#006CA9"/>
<path d="M56.1122 332.732C48.4394 344.041 41.0607 347.278 36 345.25C37.3651 349.839 47.1698 356.202 53.4147 359.865C56.1047 361.442 56.8916 365.035 55.0186 367.523C51.592 372.08 46.848 378.519 46.0561 380.299C28.3423 412.318 67.3801 424.48 86.2806 422.858C141.951 418.081 139.968 374.798 131.533 357.767C111.29 392.801 80.0433 372.575 81.2525 365.278C82.4618 357.98 90.7857 359.432 93.8227 347.753C98.8834 324.641 67.1086 313.703 56.1122 332.732Z" stroke="#006CA9" stroke-width="5" stroke-linecap="round" stroke-linejoin="round"/>
<path d="M76 390C82.2851 398.762 101.14 407.524 116.224 395.007" stroke="#006CA9" stroke-width="5" stroke-linecap="round" stroke-linejoin="round"/>
<path d="M71.0281 348.014C73.805 348.014 76.0561 345.772 76.0561 343.007C76.0561 340.242 73.805 338 71.0281 338C68.2511 338 66 340.242 66 343.007C66 345.772 68.2511 348.014 71.0281 348.014Z" fill="#006CA9"/>
<path d="M306.112 82.7322C298.439 94.0405 291.061 97.2775 286 95.2497C287.365 99.8386 297.17 106.202 303.415 109.865C306.105 111.442 306.892 115.035 305.019 117.523C301.592 122.08 296.848 128.519 296.056 130.299C278.342 162.318 317.38 174.48 336.281 172.858C391.951 168.081 389.968 124.798 381.533 107.767C361.29 142.801 330.043 122.575 331.253 115.278C332.462 107.98 340.786 109.432 343.823 97.7532C348.883 74.641 317.109 63.7032 306.112 82.7322Z" stroke="#006CA9" stroke-width="5" stroke-linecap="round" stroke-linejoin="round"/>
<path d="M323.71 140.312C329.996 149.075 348.851 157.837 363.935 145.319" stroke="#006CA9" stroke-width="5" stroke-linecap="round" stroke-linejoin="round"/>
<path d="M318.682 97.7562C321.459 97.7562 323.71 95.5145 323.71 92.7492C323.71 89.9839 321.459 87.7422 318.682 87.7422C315.905 87.7422 313.654 89.9839 313.654 92.7492C313.654 95.5145 315.905 97.7562 318.682 97.7562Z" fill="#006CA9"/>
<path d="M129.112 155.732C121.439 167.041 114.061 170.278 109 168.25C110.365 172.839 120.17 179.202 126.415 182.865C129.105 184.442 129.892 188.035 128.019 190.523C124.592 195.08 119.848 201.519 119.056 203.299C101.342 235.318 140.38 247.48 159.281 245.858C214.951 241.081 212.968 197.798 204.533 180.767C184.29 215.801 153.043 195.575 154.253 188.278C155.462 180.98 163.786 182.432 166.823 170.753C171.883 147.641 140.109 136.703 129.112 155.732Z" stroke="#006CA9" stroke-width="5" stroke-linecap="round" stroke-linejoin="round"/>
<path d="M146.71 213.312C152.996 222.075 171.851 230.837 186.935 218.319" stroke="#006CA9" stroke-width="5" stroke-linecap="round" stroke-linejoin="round"/>
<path d="M141.682 170.756C144.459 170.756 146.71 168.514 146.71 165.749C146.71 162.984 144.459 160.742 141.682 160.742C138.905 160.742 136.654 162.984 136.654 165.749C136.654 168.514 138.905 170.756 141.682 170.756Z" fill="#006CA9"/>
<path d="M556.112 332.732C548.439 344.041 541.061 347.278 536 345.25C537.365 349.839 547.17 356.202 553.415 359.865C556.105 361.442 556.892 365.035 555.019 367.523C551.592 372.08 546.848 378.519 546.056 380.299C528.342 412.318 567.38 424.48 586.281 422.858C641.951 418.081 639.968 374.798 631.533 357.767C611.29 392.801 580.043 372.575 581.253 365.278C582.462 357.98 590.786 359.432 593.823 347.753C598.883 324.641 567.109 313.703 556.112 332.732Z" stroke="#006CA9" stroke-width="5" stroke-linecap="round" stroke-linejoin="round"/>
<path d="M573.711 390.312C579.996 399.075 598.851 407.837 613.935 395.319" stroke="#006CA9" stroke-width="5" stroke-linecap="round" stroke-linejoin="round"/>
<path d="M568.682 347.756C571.459 347.756 573.71 345.514 573.71 342.749C573.71 339.984 571.459 337.742 568.682 337.742C565.905 337.742 563.654 339.984 563.654 342.749C563.654 345.514 565.905 347.756 568.682 347.756Z" fill="#006CA9"/>
<path d="M340.858 14.3636V58H335.574V19.9034H335.318L324.665 26.9773V21.608L335.574 14.3636H340.858Z" fill="#737370"/>
<path d="M460.858 471.364V515H455.574V476.903H455.318L444.665 483.977V478.608L455.574 471.364H460.858Z" fill="#FA8F00"/>
<path d="M532.517 171V167.165L546.92 151.398C548.611 149.551 550.003 147.946 551.097 146.582C552.19 145.205 553 143.912 553.526 142.705C554.065 141.483 554.335 140.205 554.335 138.869C554.335 137.335 553.966 136.007 553.227 134.885C552.503 133.763 551.509 132.896 550.244 132.286C548.98 131.675 547.56 131.369 545.983 131.369C544.307 131.369 542.844 131.717 541.594 132.413C540.358 133.095 539.399 134.054 538.717 135.29C538.05 136.526 537.716 137.974 537.716 139.636H532.688C532.688 137.08 533.277 134.835 534.456 132.903C535.635 130.972 537.24 129.466 539.271 128.386C541.317 127.307 543.611 126.767 546.153 126.767C548.71 126.767 550.976 127.307 552.95 128.386C554.925 129.466 556.473 130.922 557.595 132.754C558.717 134.587 559.278 136.625 559.278 138.869C559.278 140.474 558.987 142.044 558.405 143.578C557.837 145.098 556.842 146.795 555.422 148.67C554.016 150.531 552.062 152.804 549.562 155.489L539.761 165.972V166.312H560.045V171H532.517Z" fill="#737370"/>
<path d="M208.517 270V266.165L222.92 250.398C224.611 248.551 226.003 246.946 227.097 245.582C228.19 244.205 229 242.912 229.526 241.705C230.065 240.483 230.335 239.205 230.335 237.869C230.335 236.335 229.966 235.007 229.227 233.885C228.503 232.763 227.509 231.896 226.244 231.286C224.98 230.675 223.56 230.369 221.983 230.369C220.307 230.369 218.844 230.717 217.594 231.413C216.358 232.095 215.399 233.054 214.717 234.29C214.05 235.526 213.716 236.974 213.716 238.636H208.688C208.688 236.08 209.277 233.835 210.456 231.903C211.635 229.972 213.24 228.466 215.271 227.386C217.317 226.307 219.611 225.767 222.153 225.767C224.71 225.767 226.976 226.307 228.95 227.386C230.925 228.466 232.473 229.922 233.595 231.754C234.717 233.587 235.278 235.625 235.278 237.869C235.278 239.474 234.987 241.044 234.405 242.578C233.837 244.098 232.842 245.795 231.422 247.67C230.016 249.531 228.062 251.804 225.562 254.489L215.761 264.972V265.312H236.045V270H208.517Z" fill="#FA8F00"/>
<path d="M91.4943 171.597C88.5682 171.597 85.983 171.078 83.7386 170.041C81.5085 168.99 79.7685 167.548 78.5185 165.716C77.2685 163.869 76.6506 161.767 76.6648 159.409C76.6506 157.562 77.0128 155.858 77.7514 154.295C78.4901 152.719 79.4986 151.405 80.777 150.354C82.0696 149.288 83.5114 148.614 85.1023 148.33V148.074C83.0142 147.534 81.3523 146.362 80.1165 144.558C78.8807 142.74 78.2699 140.673 78.2841 138.358C78.2699 136.142 78.831 134.161 79.9673 132.413C81.1037 130.666 82.6662 129.288 84.6548 128.28C86.6577 127.271 88.9375 126.767 91.4943 126.767C94.0227 126.767 96.2813 127.271 98.2699 128.28C100.259 129.288 101.821 130.666 102.957 132.413C104.108 134.161 104.69 136.142 104.705 138.358C104.69 140.673 104.058 142.74 102.808 144.558C101.572 146.362 99.9318 147.534 97.8864 148.074V148.33C99.4631 148.614 100.884 149.288 102.148 150.354C103.412 151.405 104.42 152.719 105.173 154.295C105.926 155.858 106.31 157.562 106.324 159.409C106.31 161.767 105.67 163.869 104.406 165.716C103.156 167.548 101.416 168.99 99.1861 170.041C96.9702 171.078 94.4063 171.597 91.4943 171.597ZM91.4943 166.909C93.4688 166.909 95.1733 166.589 96.608 165.95C98.0426 165.311 99.1506 164.409 99.9318 163.244C100.713 162.08 101.111 160.716 101.125 159.153C101.111 157.506 100.685 156.05 99.8466 154.786C99.0085 153.521 97.8651 152.527 96.4162 151.803C94.9815 151.078 93.3409 150.716 91.4943 150.716C89.6335 150.716 87.9716 151.078 86.5085 151.803C85.0597 152.527 83.9162 153.521 83.0781 154.786C82.2543 156.05 81.8494 157.506 81.8636 159.153C81.8494 160.716 82.2259 162.08 82.9929 163.244C83.7741 164.409 84.8892 165.311 86.3381 165.95C87.7869 166.589 89.5057 166.909 91.4943 166.909ZM91.4943 146.199C93.0568 146.199 94.4418 145.886 95.6491 145.261C96.8707 144.636 97.8295 143.763 98.5256 142.641C99.2216 141.518 99.5767 140.205 99.5909 138.699C99.5767 137.222 99.2287 135.936 98.5469 134.842C97.8651 133.734 96.9205 132.882 95.7131 132.286C94.5057 131.675 93.0994 131.369 91.4943 131.369C89.8608 131.369 88.4332 131.675 87.2116 132.286C85.9901 132.882 85.0455 133.734 84.3778 134.842C83.7102 135.936 83.3835 137.222 83.3977 138.699C83.3835 140.205 83.7173 141.518 84.3991 142.641C85.0952 143.763 86.054 144.636 87.2756 145.261C88.4972 145.886 89.9034 146.199 91.4943 146.199Z" fill="#737370"/>
<path d="M190.494 529.597C187.568 529.597 184.983 529.078 182.739 528.041C180.509 526.99 178.768 525.548 177.518 523.716C176.268 521.869 175.651 519.767 175.665 517.409C175.651 515.562 176.013 513.858 176.751 512.295C177.49 510.719 178.499 509.405 179.777 508.354C181.07 507.288 182.511 506.614 184.102 506.33V506.074C182.014 505.534 180.352 504.362 179.116 502.558C177.881 500.74 177.27 498.673 177.284 496.358C177.27 494.142 177.831 492.161 178.967 490.413C180.104 488.666 181.666 487.288 183.655 486.28C185.658 485.271 187.938 484.767 190.494 484.767C193.023 484.767 195.281 485.271 197.27 486.28C199.259 487.288 200.821 488.666 201.957 490.413C203.108 492.161 203.69 494.142 203.705 496.358C203.69 498.673 203.058 500.74 201.808 502.558C200.572 504.362 198.932 505.534 196.886 506.074V506.33C198.463 506.614 199.884 507.288 201.148 508.354C202.412 509.405 203.42 510.719 204.173 512.295C204.926 513.858 205.31 515.562 205.324 517.409C205.31 519.767 204.67 521.869 203.406 523.716C202.156 525.548 200.416 526.99 198.186 528.041C195.97 529.078 193.406 529.597 190.494 529.597ZM190.494 524.909C192.469 524.909 194.173 524.589 195.608 523.95C197.043 523.311 198.151 522.409 198.932 521.244C199.713 520.08 200.111 518.716 200.125 517.153C200.111 515.506 199.685 514.05 198.847 512.786C198.009 511.521 196.865 510.527 195.416 509.803C193.982 509.078 192.341 508.716 190.494 508.716C188.634 508.716 186.972 509.078 185.509 509.803C184.06 510.527 182.916 511.521 182.078 512.786C181.254 514.05 180.849 515.506 180.864 517.153C180.849 518.716 181.226 520.08 181.993 521.244C182.774 522.409 183.889 523.311 185.338 523.95C186.787 524.589 188.506 524.909 190.494 524.909ZM190.494 504.199C192.057 504.199 193.442 503.886 194.649 503.261C195.871 502.636 196.83 501.763 197.526 500.641C198.222 499.518 198.577 498.205 198.591 496.699C198.577 495.222 198.229 493.936 197.547 492.842C196.865 491.734 195.92 490.882 194.713 490.286C193.506 489.675 192.099 489.369 190.494 489.369C188.861 489.369 187.433 489.675 186.212 490.286C184.99 490.882 184.045 491.734 183.378 492.842C182.71 493.936 182.384 495.222 182.398 496.699C182.384 498.205 182.717 499.518 183.399 500.641C184.095 501.763 185.054 502.636 186.276 503.261C187.497 503.886 188.903 504.199 190.494 504.199Z" fill="#FA8F00"/>
<path d="M5.88068 392L25.3977 353.392V353.051H2.89773V348.364H30.8523V353.307L11.4205 392H5.88068Z" fill="#737370"/>
<path d="M142.881 392L162.398 353.392V353.051H139.898V348.364H167.852V353.307L148.42 392H142.881Z" fill="#FA8F00"/>
<path d="M92.0057 617.597C90.2159 617.568 88.4261 617.227 86.6364 616.574C84.8466 615.92 83.2131 614.82 81.7358 613.271C80.2585 611.709 79.0724 609.599 78.1776 606.943C77.2827 604.273 76.8352 600.92 76.8352 596.886C76.8352 593.023 77.1974 589.599 77.9219 586.616C78.6463 583.619 79.6974 581.098 81.0753 579.053C82.4531 576.993 84.1151 575.43 86.0611 574.365C88.0213 573.3 90.2301 572.767 92.6875 572.767C95.1307 572.767 97.304 573.257 99.2074 574.237C101.125 575.203 102.688 576.553 103.895 578.286C105.102 580.018 105.884 582.014 106.239 584.273H101.04C100.557 582.312 99.6193 580.686 98.2273 579.393C96.8352 578.101 94.9886 577.455 92.6875 577.455C89.3068 577.455 86.6435 578.925 84.6974 581.865C82.7656 584.805 81.7926 588.932 81.7784 594.244H82.1193C82.9148 593.037 83.8594 592.007 84.9531 591.155C86.0611 590.288 87.2827 589.621 88.6179 589.152C89.9531 588.683 91.3665 588.449 92.858 588.449C95.358 588.449 97.6449 589.074 99.7188 590.324C101.793 591.56 103.455 593.271 104.705 595.459C105.955 597.632 106.58 600.125 106.58 602.938C106.58 605.636 105.976 608.108 104.768 610.352C103.561 612.582 101.864 614.358 99.6761 615.679C97.5028 616.986 94.946 617.625 92.0057 617.597ZM92.0057 612.909C93.7955 612.909 95.4006 612.462 96.821 611.567C98.2557 610.672 99.3849 609.472 100.209 607.966C101.047 606.46 101.466 604.784 101.466 602.938C101.466 601.134 101.061 599.493 100.251 598.016C99.456 596.524 98.3551 595.338 96.9489 594.457C95.5568 593.577 93.9659 593.136 92.1761 593.136C90.8267 593.136 89.5696 593.406 88.4048 593.946C87.2401 594.472 86.2173 595.196 85.3366 596.119C84.4702 597.043 83.7884 598.101 83.2912 599.294C82.794 600.473 82.5455 601.716 82.5455 603.023C82.5455 604.756 82.9503 606.375 83.7599 607.881C84.5838 609.386 85.706 610.601 87.1264 611.524C88.5611 612.447 90.1875 612.909 92.0057 612.909Z" fill="#737370"/>
<path d="M515.006 392.597C513.216 392.568 511.426 392.227 509.636 391.574C507.847 390.92 506.213 389.82 504.736 388.271C503.259 386.709 502.072 384.599 501.178 381.943C500.283 379.273 499.835 375.92 499.835 371.886C499.835 368.023 500.197 364.599 500.922 361.616C501.646 358.619 502.697 356.098 504.075 354.053C505.453 351.993 507.115 350.43 509.061 349.365C511.021 348.3 513.23 347.767 515.688 347.767C518.131 347.767 520.304 348.257 522.207 349.237C524.125 350.203 525.688 351.553 526.895 353.286C528.102 355.018 528.884 357.014 529.239 359.273H524.04C523.557 357.312 522.619 355.686 521.227 354.393C519.835 353.101 517.989 352.455 515.688 352.455C512.307 352.455 509.643 353.925 507.697 356.865C505.766 359.805 504.793 363.932 504.778 369.244H505.119C505.915 368.037 506.859 367.007 507.953 366.155C509.061 365.288 510.283 364.621 511.618 364.152C512.953 363.683 514.366 363.449 515.858 363.449C518.358 363.449 520.645 364.074 522.719 365.324C524.793 366.56 526.455 368.271 527.705 370.459C528.955 372.632 529.58 375.125 529.58 377.938C529.58 380.636 528.976 383.108 527.768 385.352C526.561 387.582 524.864 389.358 522.676 390.679C520.503 391.986 517.946 392.625 515.006 392.597ZM515.006 387.909C516.795 387.909 518.401 387.462 519.821 386.567C521.256 385.672 522.385 384.472 523.209 382.966C524.047 381.46 524.466 379.784 524.466 377.938C524.466 376.134 524.061 374.493 523.251 373.016C522.456 371.524 521.355 370.338 519.949 369.457C518.557 368.577 516.966 368.136 515.176 368.136C513.827 368.136 512.57 368.406 511.405 368.946C510.24 369.472 509.217 370.196 508.337 371.119C507.47 372.043 506.788 373.101 506.291 374.294C505.794 375.473 505.545 376.716 505.545 378.023C505.545 379.756 505.95 381.375 506.76 382.881C507.584 384.386 508.706 385.601 510.126 386.524C511.561 387.447 513.188 387.909 515.006 387.909Z" fill="#FA8F00"/>
<path d="M333.153 731.597C330.653 731.597 328.402 731.099 326.399 730.105C324.396 729.111 322.791 727.747 321.584 726.014C320.376 724.281 319.716 722.307 319.602 720.091H324.716C324.915 722.065 325.81 723.699 327.401 724.991C329.006 726.27 330.923 726.909 333.153 726.909C334.943 726.909 336.534 726.49 337.926 725.652C339.332 724.814 340.433 723.663 341.229 722.2C342.038 720.723 342.443 719.054 342.443 717.193C342.443 715.29 342.024 713.592 341.186 712.101C340.362 710.595 339.226 709.409 337.777 708.543C336.328 707.676 334.673 707.236 332.812 707.222C331.477 707.207 330.107 707.413 328.7 707.839C327.294 708.251 326.136 708.784 325.227 709.438L320.284 708.841L322.926 687.364H345.597V692.051H327.358L325.824 704.92H326.08C326.974 704.21 328.097 703.621 329.446 703.152C330.795 702.683 332.202 702.449 333.665 702.449C336.335 702.449 338.714 703.088 340.803 704.366C342.905 705.631 344.553 707.364 345.746 709.565C346.953 711.767 347.557 714.281 347.557 717.108C347.557 719.892 346.932 722.378 345.682 724.565C344.446 726.739 342.741 728.457 340.568 729.722C338.395 730.972 335.923 731.597 333.153 731.597Z" fill="#737370"/>
<path d="M333.153 225.597C330.653 225.597 328.402 225.099 326.399 224.105C324.396 223.111 322.791 221.747 321.584 220.014C320.376 218.281 319.716 216.307 319.602 214.091H324.716C324.915 216.065 325.81 217.699 327.401 218.991C329.006 220.27 330.923 220.909 333.153 220.909C334.943 220.909 336.534 220.49 337.926 219.652C339.332 218.814 340.433 217.663 341.229 216.2C342.038 214.723 342.443 213.054 342.443 211.193C342.443 209.29 342.024 207.592 341.186 206.101C340.362 204.595 339.226 203.409 337.777 202.543C336.328 201.676 334.673 201.236 332.812 201.222C331.477 201.207 330.107 201.413 328.7 201.839C327.294 202.251 326.136 202.784 325.227 203.438L320.284 202.841L322.926 181.364H345.597V186.051H327.358L325.824 198.92H326.08C326.974 198.21 328.097 197.621 329.446 197.152C330.795 196.683 332.202 196.449 333.665 196.449C336.335 196.449 338.714 197.088 340.803 198.366C342.905 199.631 344.553 201.364 345.746 203.565C346.953 205.767 347.557 208.281 347.557 211.108C347.557 213.892 346.932 216.378 345.682 218.565C344.446 220.739 342.741 222.457 340.568 223.722C338.395 224.972 335.923 225.597 333.153 225.597Z" fill="#FA8F00"/>
<path d="M561.494 608.051V603.705L580.67 573.364H583.824V580.097H581.693L567.205 603.023V603.364H593.028V608.051H561.494ZM582.034 617V606.73V604.706V573.364H587.062V617H582.034Z" fill="#737370"/>
<path d="M436.494 261.051V256.705L455.67 226.364H458.824V233.097H456.693L442.205 256.023V256.364H468.028V261.051H436.494ZM457.034 270V259.73V257.706V226.364H462.062V270H457.034Z" fill="#FA8F00"/>
<path d="M655.261 392.597C652.449 392.597 649.942 392.114 647.74 391.148C645.553 390.182 643.813 388.839 642.52 387.121C641.241 385.388 640.545 383.378 640.432 381.091H645.801C645.915 382.497 646.398 383.712 647.25 384.734C648.102 385.743 649.217 386.524 650.595 387.078C651.973 387.632 653.5 387.909 655.176 387.909C657.051 387.909 658.713 387.582 660.162 386.929C661.611 386.276 662.747 385.366 663.571 384.202C664.395 383.037 664.807 381.688 664.807 380.153C664.807 378.548 664.409 377.135 663.614 375.913C662.818 374.678 661.653 373.712 660.119 373.016C658.585 372.32 656.71 371.972 654.494 371.972H651V367.284H654.494C656.227 367.284 657.747 366.972 659.054 366.347C660.375 365.722 661.405 364.841 662.143 363.705C662.896 362.568 663.273 361.233 663.273 359.699C663.273 358.222 662.946 356.936 662.293 355.842C661.639 354.749 660.716 353.896 659.523 353.286C658.344 352.675 656.952 352.369 655.347 352.369C653.841 352.369 652.42 352.646 651.085 353.2C649.764 353.74 648.685 354.528 647.847 355.565C647.009 356.588 646.554 357.824 646.483 359.273H641.369C641.455 356.986 642.143 354.983 643.436 353.264C644.729 351.531 646.419 350.182 648.507 349.216C650.609 348.25 652.918 347.767 655.432 347.767C658.131 347.767 660.446 348.314 662.378 349.408C664.31 350.487 665.794 351.915 666.831 353.69C667.868 355.466 668.386 357.384 668.386 359.443C668.386 361.901 667.74 363.996 666.447 365.729C665.169 367.462 663.429 368.662 661.227 369.33V369.67C663.983 370.125 666.135 371.297 667.683 373.186C669.232 375.061 670.006 377.384 670.006 380.153C670.006 382.526 669.359 384.656 668.067 386.545C666.788 388.42 665.041 389.898 662.825 390.977C660.609 392.057 658.088 392.597 655.261 392.597Z" fill="#737370"/>
<path d="M334.261 567.597C331.449 567.597 328.942 567.114 326.74 566.148C324.553 565.182 322.813 563.839 321.52 562.121C320.241 560.388 319.545 558.378 319.432 556.091H324.801C324.915 557.497 325.398 558.712 326.25 559.734C327.102 560.743 328.217 561.524 329.595 562.078C330.973 562.632 332.5 562.909 334.176 562.909C336.051 562.909 337.713 562.582 339.162 561.929C340.611 561.276 341.747 560.366 342.571 559.202C343.395 558.037 343.807 556.688 343.807 555.153C343.807 553.548 343.409 552.135 342.614 550.913C341.818 549.678 340.653 548.712 339.119 548.016C337.585 547.32 335.71 546.972 333.494 546.972H330V542.284H333.494C335.227 542.284 336.747 541.972 338.054 541.347C339.375 540.722 340.405 539.841 341.143 538.705C341.896 537.568 342.273 536.233 342.273 534.699C342.273 533.222 341.946 531.936 341.293 530.842C340.639 529.749 339.716 528.896 338.523 528.286C337.344 527.675 335.952 527.369 334.347 527.369C332.841 527.369 331.42 527.646 330.085 528.2C328.764 528.74 327.685 529.528 326.847 530.565C326.009 531.588 325.554 532.824 325.483 534.273H320.369C320.455 531.986 321.143 529.983 322.436 528.264C323.729 526.531 325.419 525.182 327.507 524.216C329.609 523.25 331.918 522.767 334.432 522.767C337.131 522.767 339.446 523.314 341.378 524.408C343.31 525.487 344.794 526.915 345.831 528.69C346.868 530.466 347.386 532.384 347.386 534.443C347.386 536.901 346.74 538.996 345.447 540.729C344.169 542.462 342.429 543.662 340.227 544.33V544.67C342.983 545.125 345.135 546.297 346.683 548.186C348.232 550.061 349.006 552.384 349.006 555.153C349.006 557.526 348.359 559.656 347.067 561.545C345.788 563.42 344.041 564.898 341.825 565.977C339.609 567.057 337.088 567.597 334.261 567.597Z" fill="#FA8F00"/>
</svg>
